<svg id="Layer_1" data-name="Layer 1" xmlns="http://www.w3.org/2000/svg" width="64" height="64" viewBox="0 0 64 64"><defs><style>.cls-1{fill:#666;}</style></defs><title>vertical_arrows</title><path class="cls-1" d="M9.71,15.71L18,7.41V59a1,1,0,0,0,2,0V7.41l8.29,8.29A1,1,0,0,0,29,16a1,1,0,0,0,.71-0.29,1,1,0,0,0,0-1.41l-10-10a1,1,0,0,0-.33-0.22,1,1,0,0,0-1.09.22l-10,10a1,1,0,0,0,0,1.41A1,1,0,0,0,9.71,15.71Z"/><path class="cls-1" d="M44.29,59.71a1,1,0,0,0,.33.22A1.22,1.22,0,0,0,45,60a1,1,0,0,0,.71-0.3l10-10a1,1,0,0,0-1.41-1.41L46,56.59V5a1,1,0,0,0-2,0V56.59L35.71,48.3a1,1,0,0,0-1.41,1.41Z"/></svg>